<?xml version="1.0"?>
<svg xmlns="http://www.w3.org/2000/svg" viewBox="0 0 512 512" width="512" height="512"><g id="outline"><path d="M256,408a32,32,0,1,0,32,32A32.036,32.036,0,0,0,256,408Zm0,48a16,16,0,1,1,16-16A16.019,16.019,0,0,1,256,456Z"/><path d="M240,64h32a8,8,0,0,0,0-16H240a8,8,0,0,0,0,16Z"/><path d="M304,64h8a8,8,0,0,0,0-16h-8a8,8,0,0,0,0,16Z"/><path d="M173.657,226.457l42.035-42.035a28.365,28.365,0,1,0-40.113-40.114L168,151.887l-7.579-7.579a28.365,28.365,0,0,0-40.113,40.114l42.035,42.035a8,8,0,0,0,11.314,0Zm-42.035-53.35a12.364,12.364,0,1,1,17.486-17.485l13.235,13.235a8,8,0,0,0,11.314,0l13.236-13.236a12.364,12.364,0,1,1,17.485,17.486L168,209.486Z"/><path d="M384,234.073V50a34.038,34.038,0,0,0-34-34H162a34.038,34.038,0,0,0-34,34V88.741A95.994,95.994,0,0,0,94.45,237.7L81.14,259.884A8,8,0,0,0,88,272h40V462a34.038,34.038,0,0,0,34,34H350a34.038,34.038,0,0,0,34-34V408h24a8,8,0,0,0,6.86-12.116L401.55,373.7A95.951,95.951,0,0,0,384,234.073ZM144,50a18.021,18.021,0,0,1,18-18H350a18.021,18.021,0,0,1,18,18V88H206.345A96.056,96.056,0,0,0,144,83.038Zm224,54V224.741A95.962,95.962,0,0,0,264.577,384H144V272h24a95.954,95.954,0,0,0,63.423-168ZM102.129,256l9.075-15.124a8,8,0,0,0-1.074-9.641A80,80,0,1,1,168,256ZM368,462a18.021,18.021,0,0,1-18,18H162a18.021,18.021,0,0,1-18-18V400H289.655A95.442,95.442,0,0,0,328,408h40Zm16.8-85.124L393.871,392H328a80,80,0,1,1,57.87-24.765A8,8,0,0,0,384.8,376.876Z"/><circle cx="328" cy="328" r="8"/><circle cx="296" cy="328" r="8"/><circle cx="360" cy="328" r="8"/></g></svg>
